<svg width="80" height="73" viewBox="0 0 80 73" fill="none" xmlns="http://www.w3.org/2000/svg">
<path d="M20.6463 59.4588H20.6444C16.8955 59.4443 13.6416 58.5202 10.9057 56.6668L10.9046 56.6661C8.18481 54.8137 6.10417 52.1386 4.65238 48.6688L4.6517 48.6672C3.21386 45.1961 2.5113 41.0434 2.52557 36.2237C2.52564 31.4186 3.23539 27.2939 4.67387 23.8648L4.67456 23.8632C6.12715 20.4351 8.20908 17.8022 10.9303 15.9929C13.6662 14.169 16.9123 13.267 20.6463 13.267C24.3801 13.267 27.6196 14.169 30.3418 15.9934C33.0761 17.8165 35.165 20.4557 36.6178 23.8838L20.6463 59.4588ZM20.6463 59.4588C24.3957 59.4588 27.6437 58.542 30.3667 56.6874C33.0865 54.835 35.1601 52.1598 36.5976 48.6902L20.6463 59.4588ZM28.3494 36.2244L28.3494 36.2258C28.3635 41.221 27.6266 44.8843 26.2035 47.2833C24.784 49.6761 22.937 50.8097 20.6463 50.8097C19.108 50.8097 17.7784 50.3014 16.6347 49.2766C15.4878 48.2346 14.5672 46.65 13.902 44.475C13.2531 42.2926 12.9219 39.5469 12.9219 36.2252C12.936 31.302 13.6864 27.6882 15.1091 25.3169C16.528 22.9521 18.3681 21.831 20.6463 21.831C22.1851 21.831 23.5069 22.3394 24.6357 23.3633L24.6378 23.3652C25.7841 24.3929 26.6973 25.9559 27.3482 28.1025L27.3491 28.1053C28.0112 30.2432 28.3494 32.945 28.3494 36.2244ZM44.3455 58V58.5H44.8455H75.9535H76.4535V58V50.4574V49.9574H75.9535H58.5498L64.3437 44.2798C67.3455 41.548 69.6832 39.1971 71.3493 37.2293L71.3504 37.228C73.0172 35.2451 74.196 33.4167 74.8621 31.7445C75.538 30.0834 75.8782 28.3939 75.8782 26.679C75.8782 24.0742 75.207 21.7463 73.8558 19.712C72.5078 17.6826 70.6231 16.1057 68.2202 14.9772C65.8248 13.8313 63.0285 13.267 59.8455 13.267C56.742 13.267 53.9793 13.8547 51.5701 15.0446C49.1609 16.2345 47.2769 17.9235 45.9324 20.1103C44.5841 22.303 43.9194 24.8754 43.9194 27.8082V28.3082H44.4194H53.1765H53.6765V27.8082C53.6765 26.4808 53.9336 25.3651 54.427 24.4433C54.9212 23.5199 55.6184 22.817 56.5258 22.3244C57.4348 21.8309 58.5147 21.5753 59.7816 21.5753C60.9918 21.5753 62.0561 21.8168 62.9859 22.2883L62.9859 22.2883L62.9909 22.2908C63.9173 22.7475 64.6415 23.4016 65.1736 24.2582L65.1755 24.2611C65.6994 25.0917 65.9719 26.0965 65.9719 27.2969C65.9719 28.3767 65.7526 29.3754 65.3172 30.2995C64.8731 31.2278 64.2137 32.1903 63.3283 33.1863L63.3258 33.1892C62.4434 34.1976 61.347 35.3367 60.0344 36.607L44.5058 50.9854L44.3455 51.1338V51.3523V58ZM38.767 36.2246C38.7813 31.4193 38.0716 27.3006 36.618 23.8845L38.767 36.2246Z" stroke="white"/>
</svg>
