<svg width="82" height="73" viewBox="0 0 82 73" fill="none" xmlns="http://www.w3.org/2000/svg">
<path d="M20.6463 59.4588H20.6444C16.8955 59.4443 13.6417 58.5202 10.9057 56.6668L10.9046 56.6661C8.18482 54.8137 6.10418 52.1386 4.65239 48.6688L4.6517 48.6672C3.21387 45.1961 2.5113 41.0434 2.52557 36.2237C2.52565 31.4186 3.2354 27.2939 4.67387 23.8648L4.67457 23.8632C6.12715 20.4351 8.20908 17.8022 10.9303 15.9929C13.6662 14.169 16.9123 13.267 20.6463 13.267C24.3801 13.267 27.6196 14.169 30.3418 15.9934C33.0761 17.8165 35.165 20.4557 36.6178 23.8838L20.6463 59.4588ZM20.6463 59.4588C24.3957 59.4588 27.6437 58.542 30.3667 56.6874C33.0865 54.835 35.1601 52.1598 36.5976 48.6902L20.6463 59.4588ZM28.3494 36.2244L28.3494 36.2258C28.3636 41.221 27.6266 44.8843 26.2035 47.2833C24.784 49.6761 22.937 50.8097 20.6463 50.8097C19.108 50.8097 17.7784 50.3014 16.6348 49.2766C15.4878 48.2346 14.5672 46.65 13.902 44.475C13.2531 42.2926 12.9219 39.5469 12.9219 36.2252C12.9361 31.302 13.6864 27.6882 15.1091 25.3169C16.528 22.9521 18.3681 21.831 20.6463 21.831C22.1851 21.831 23.5069 22.3394 24.6357 23.3633L24.6378 23.3652C25.7841 24.3929 26.6973 25.9559 27.3482 28.1025L27.3491 28.1053C28.0112 30.2432 28.3494 32.945 28.3494 36.2244ZM43.685 50.3295V50.8295H44.185H64.6296V58V58.5H65.1296H73.9506H74.4506V58V50.8295H79.3626H79.8626V50.3295V42.9361V42.4361H79.3626H74.4506V14.3636V13.8636H73.9506H69.1666H68.6666H65.3001H64.8001H62.4023H62.1275L61.9802 14.0957L43.7629 42.796L43.685 42.9186V43.0639V50.3295ZM54.1668 42.4361L64.8001 25.6082V42.4361H54.1668ZM38.7671 36.2246C38.7813 31.4193 38.0716 27.3006 36.6181 23.8845L38.7671 36.2246Z" stroke="white"/>
</svg>
