<svg width="89" height="68" viewBox="0 0 89 68" fill="none" xmlns="http://www.w3.org/2000/svg">
<path fill-rule="evenodd" clip-rule="evenodd" d="M32.1058 0L41.894 4.18121L40.9529 10.6272L33.7058 7.40422H33.5176V45.0349H77V46.5158H33.4234C32.9717 49.0594 31.7607 49.8986 31.2117 50H27.9176C26.487 49.5819 25.847 47.3286 25.7058 46.2544H23.3529V46.6899C23.1647 48.8154 21.8 49.7824 21.1411 50H17.7059C16.2376 49.4775 15.651 47.5756 15.5412 46.6899V45.2963L13.847 45.3836V42.1604L15.447 41.899V40.941H15.9176L16.0117 32.3172H13.4706L13 31.1412V30.1395L17.7059 29.2684V27.9618L21.1882 27.0036V26.0454L22.7411 25.697C22.5686 25.1162 22.2047 23.9025 22.1294 23.6934C21.9788 22.8572 22.7568 22.2997 23.1647 22.1255H28.7176V20.8189H29.0941V5.92335H28.8588L28.8117 1.65506L32.1058 0Z" fill="#D9D9D9"/>
<path fill-rule="evenodd" clip-rule="evenodd" d="M50.4585 0.958188L36.6234 6.27181V19.0767L49.8939 15.1569L50.4585 15.331V0.958188Z" fill="#0173BC"/>
<path d="M49.983 44.6398L49.8573 15.7327L72.6708 22.9892V44.5209L49.983 44.6398Z" fill="#952825"/>
<path fill-rule="evenodd" clip-rule="evenodd" d="M65.5488 20.2096V7.66599L50.443 0.915121V15.3751L65.5488 20.2096Z" fill="#233172"/>
<path fill-rule="evenodd" clip-rule="evenodd" d="M49.8939 15.7231L31.2587 21.3851V44.7735L49.9882 44.5993L49.8939 15.7231Z" fill="#EF3133"/>
<path d="M33.0912 24.5336C35.168 23.9143 37.3899 23.2524 39.7668 22.5443C42.317 21.7846 45.0627 20.9664 48.022 20.0853C48.0251 21.9538 48.0283 23.8199 48.0314 25.6838C47.0116 25.9144 46.0172 26.1395 45.0497 26.3585C44.1075 26.5719 43.1849 26.781 42.289 26.9839C42.2937 29.6146 42.2985 32.2454 42.3032 34.8739C42.308 37.5025 42.3127 40.1334 42.3175 42.758C41.4589 42.7655 40.6227 42.7734 39.8061 42.7807C39.0072 42.7879 38.2278 42.7952 37.4648 42.8021C37.4601 40.3513 37.4546 37.8982 37.4492 35.4455C37.4437 32.9927 37.4397 30.5379 37.4349 28.0832C36.6705 28.2563 35.9224 28.4255 35.1938 28.5906C34.4816 28.7519 33.7814 28.9103 33.1005 29.0649C33.0974 27.5545 33.0943 26.0459 33.0912 24.5336Z" fill="#EEE5E6"/>
<path d="M62.8038 35.5196C62.802 34.2445 62.8002 32.9671 62.7981 31.6901C64.0795 31.9253 65.3069 32.149 66.482 32.3646C67.6102 32.5715 68.6896 32.7698 69.7303 32.9588C69.7303 34.1105 69.7303 35.2605 69.7303 36.4088C69.7303 37.5555 69.7303 38.7055 69.7303 39.8522C68.5332 40.8264 67.4331 41.5145 66.439 41.8872C65.405 42.275 64.1243 42.4699 62.5709 42.4729C61.5689 42.4748 60.6313 42.381 59.7613 42.1878C58.8685 41.9892 58.0543 41.6791 57.3272 41.2662C55.8207 40.4112 54.5993 39.1111 53.7001 37.3655C53.2425 36.4773 52.892 35.5205 52.6587 34.5069C52.4241 33.4862 52.3039 32.4081 52.3003 31.2799C52.2964 30.0932 52.4173 29.0098 52.6697 28.0338C52.9201 27.065 53.2991 26.2077 53.7951 25.465C54.7608 24.0181 56.1339 23.1376 57.8644 22.8123C58.5111 22.6907 59.2599 22.6899 60.093 22.7999C60.903 22.9071 61.7954 23.1165 62.7579 23.4293C64.5236 24.0034 65.7773 24.589 66.578 25.1923C67.3581 25.7798 67.9881 26.4941 68.477 27.3439C68.9556 28.1762 69.315 29.1446 69.549 30.2558C68.9015 30.252 68.2388 30.2487 67.5586 30.2436C66.8606 30.2384 66.1456 30.2312 65.4096 30.2248C65.224 29.5149 64.9069 28.926 64.4557 28.458C63.9952 27.9804 63.4007 27.6468 62.6541 27.4559C61.5145 27.1647 60.5716 27.3739 59.8487 28.1058C59.1081 28.8559 58.7383 30.2421 58.7423 32.2478C58.7462 34.3758 59.1291 35.9337 59.8772 36.9059C60.6079 37.8554 61.5949 38.3671 62.8151 38.4494C63.3758 38.4872 63.8999 38.4355 64.3942 38.289C64.8745 38.1465 65.4157 37.8867 66.0158 37.5232C66.0173 36.9823 66.0166 36.4391 66.0162 35.8978C64.9851 35.7764 63.9134 35.6503 62.8038 35.5196Z" fill="#BBB2B3"/>
<path d="M0.477273 57.598V56.2727H7.44034V57.598H4.7429V65H3.17472V57.598H0.477273ZM8.78267 65V56.2727H12.0554C12.7259 56.2727 13.2884 56.3892 13.7429 56.6222C14.2003 56.8551 14.5455 57.1818 14.7784 57.6023C15.0142 58.0199 15.1321 58.5071 15.1321 59.0639C15.1321 59.6236 15.0128 60.1094 14.7741 60.5213C14.5384 60.9304 14.1903 61.2472 13.7301 61.4716C13.2699 61.6932 12.7045 61.804 12.0341 61.804H9.70312V60.4915H11.821C12.2131 60.4915 12.5341 60.4375 12.7841 60.3295C13.0341 60.2187 13.2188 60.0582 13.3381 59.848C13.4602 59.6349 13.5213 59.3736 13.5213 59.0639C13.5213 58.7543 13.4602 58.4901 13.3381 58.2713C13.2159 58.0497 13.0298 57.8821 12.7798 57.7685C12.5298 57.652 12.2074 57.5938 11.8125 57.5938H10.3636V65H8.78267ZM13.2912 61.0455L15.4517 65H13.6875L11.5653 61.0455H13.2912ZM17.7081 65H16.0206L19.093 56.2727H21.0447L24.1214 65H22.4339L20.103 58.0625H20.0348L17.7081 65ZM17.7635 61.5781H22.3658V62.848H17.7635V61.5781ZM28.2283 65H25.271V56.2727H28.288C29.1545 56.2727 29.8988 56.4474 30.521 56.7969C31.146 57.1435 31.6261 57.642 31.9613 58.2926C32.2965 58.9432 32.4641 59.7216 32.4641 60.6278C32.4641 61.5369 32.2951 62.3182 31.957 62.9716C31.6218 63.625 31.1374 64.1264 30.5039 64.4759C29.8732 64.8253 29.1147 65 28.2283 65ZM26.8519 63.6321H28.1516C28.7596 63.6321 29.2667 63.5213 29.6729 63.2997C30.0792 63.0753 30.3846 62.7415 30.5891 62.2983C30.7937 61.8523 30.896 61.2955 30.896 60.6278C30.896 59.9602 30.7937 59.4062 30.5891 58.9659C30.3846 58.5227 30.082 58.1918 29.6815 57.973C29.2837 57.7514 28.7894 57.6406 28.1985 57.6406H26.8519V63.6321ZM33.9663 65V56.2727H39.6424V57.598H35.5472V59.9673H39.3484V61.2926H35.5472V63.6747H39.6765V65H33.9663ZM45.1545 60.0014V61.2713H41.2255V60.0014H45.1545ZM52.6918 59.0597C52.6207 58.8295 52.5227 58.6236 52.3977 58.4418C52.2756 58.2571 52.1278 58.0994 51.9545 57.9688C51.7841 57.8381 51.5881 57.7401 51.3665 57.6747C51.1449 57.6065 50.9034 57.5724 50.642 57.5724C50.1733 57.5724 49.7557 57.6903 49.3892 57.9261C49.0227 58.1619 48.7344 58.5085 48.5241 58.9659C48.3168 59.4205 48.2131 59.9744 48.2131 60.6278C48.2131 61.2869 48.3168 61.8452 48.5241 62.3026C48.7315 62.7599 49.0199 63.108 49.3892 63.3466C49.7585 63.5824 50.1875 63.7003 50.6761 63.7003C51.1193 63.7003 51.5028 63.6151 51.8267 63.4446C52.1534 63.2741 52.4048 63.0327 52.581 62.7202C52.7571 62.4048 52.8452 62.0355 52.8452 61.6122L53.2031 61.6676H50.8338V60.4318H54.375V61.4801C54.375 62.2273 54.2159 62.8736 53.8977 63.419C53.5795 63.9645 53.142 64.3849 52.5852 64.6804C52.0284 64.973 51.3892 65.1193 50.6676 65.1193C49.8636 65.1193 49.1577 64.9389 48.5497 64.5781C47.9446 64.2145 47.4716 63.6989 47.1307 63.0312C46.7926 62.3608 46.6236 61.5653 46.6236 60.6449C46.6236 59.9403 46.723 59.3111 46.9219 58.7571C47.1236 58.2031 47.4048 57.733 47.7656 57.3466C48.1264 56.9574 48.5497 56.6619 49.0355 56.4602C49.5213 56.2557 50.0497 56.1534 50.6207 56.1534C51.1037 56.1534 51.554 56.2244 51.9716 56.3665C52.3892 56.5057 52.7599 56.7045 53.0838 56.9631C53.4105 57.2216 53.679 57.5284 53.8892 57.8835C54.0994 58.2386 54.2372 58.6307 54.3026 59.0597H52.6918ZM55.9038 65V56.2727H59.1765C59.8469 56.2727 60.4094 56.3892 60.864 56.6222C61.3214 56.8551 61.6665 57.1818 61.8995 57.6023C62.1353 58.0199 62.2532 58.5071 62.2532 59.0639C62.2532 59.6236 62.1339 60.1094 61.8952 60.5213C61.6594 60.9304 61.3114 61.2472 60.8512 61.4716C60.391 61.6932 59.8256 61.804 59.1552 61.804H56.8242V60.4915H58.9421C59.3342 60.4915 59.6552 60.4375 59.9052 60.3295C60.1552 60.2187 60.3398 60.0582 60.4592 59.848C60.5813 59.6349 60.6424 59.3736 60.6424 59.0639C60.6424 58.7543 60.5813 58.4901 60.4592 58.2713C60.337 58.0497 60.1509 57.8821 59.9009 57.7685C59.6509 57.652 59.3285 57.5938 58.9336 57.5938H57.4847V65H55.9038ZM60.4123 61.0455L62.5728 65H60.8086L58.6864 61.0455H60.4123ZM71.5067 60.6364C71.5067 61.5767 71.3306 62.3821 70.9783 63.0526C70.6289 63.7202 70.1516 64.2315 69.5465 64.5866C68.9442 64.9418 68.261 65.1193 67.4968 65.1193C66.7326 65.1193 66.0479 64.9418 65.4428 64.5866C64.8406 64.2287 64.3633 63.7159 64.011 63.0483C63.6616 62.3778 63.4869 61.5739 63.4869 60.6364C63.4869 59.696 63.6616 58.892 64.011 58.2244C64.3633 57.554 64.8406 57.0412 65.4428 56.6861C66.0479 56.331 66.7326 56.1534 67.4968 56.1534C68.261 56.1534 68.9442 56.331 69.5465 56.6861C70.1516 57.0412 70.6289 57.554 70.9783 58.2244C71.3306 58.892 71.5067 59.696 71.5067 60.6364ZM69.9173 60.6364C69.9173 59.9744 69.8136 59.4162 69.6062 58.9616C69.4016 58.5043 69.1175 58.1591 68.7539 57.9261C68.3903 57.6903 67.9712 57.5724 67.4968 57.5724C67.0224 57.5724 66.6033 57.6903 66.2397 57.9261C65.8761 58.1591 65.5906 58.5043 65.3832 58.9616C65.1786 59.4162 65.0763 59.9744 65.0763 60.6364C65.0763 61.2983 65.1786 61.858 65.3832 62.3153C65.5906 62.7699 65.8761 63.1151 66.2397 63.3509C66.6033 63.5838 67.0224 63.7003 67.4968 63.7003C67.9712 63.7003 68.3903 63.5838 68.7539 63.3509C69.1175 63.1151 69.4016 62.7699 69.6062 62.3153C69.8136 61.858 69.9173 61.2983 69.9173 60.6364ZM78.5028 56.2727H80.0838V61.9744C80.0838 62.5994 79.9361 63.1491 79.6406 63.6236C79.348 64.098 78.9361 64.4687 78.4048 64.7358C77.8736 65 77.2528 65.1321 76.5426 65.1321C75.8295 65.1321 75.2074 65 74.6761 64.7358C74.1449 64.4687 73.733 64.098 73.4403 63.6236C73.1477 63.1491 73.0014 62.5994 73.0014 61.9744V56.2727H74.5824V61.8423C74.5824 62.206 74.6619 62.5298 74.821 62.8139C74.983 63.098 75.2102 63.321 75.5028 63.483C75.7955 63.642 76.142 63.7216 76.5426 63.7216C76.9432 63.7216 77.2898 63.642 77.5824 63.483C77.8778 63.321 78.1051 63.098 78.2642 62.8139C78.4233 62.5298 78.5028 62.206 78.5028 61.8423V56.2727ZM81.8022 65V56.2727H85.0749C85.7454 56.2727 86.3079 56.3977 86.7624 56.6477C87.2198 56.8977 87.565 57.2415 87.7979 57.679C88.0337 58.1136 88.1516 58.608 88.1516 59.1619C88.1516 59.7216 88.0337 60.2187 87.7979 60.6534C87.5621 61.0881 87.2141 61.4304 86.7539 61.6804C86.2937 61.9276 85.7269 62.0511 85.0536 62.0511H82.8846V60.7514H84.8406C85.2326 60.7514 85.5536 60.6832 85.8036 60.5469C86.0536 60.4105 86.2383 60.223 86.3576 59.9844C86.4798 59.7457 86.5408 59.4716 86.5408 59.1619C86.5408 58.8523 86.4798 58.5795 86.3576 58.3438C86.2383 58.108 86.0522 57.9247 85.7994 57.794C85.5494 57.6605 85.2269 57.5938 84.832 57.5938H83.3832V65H81.8022Z" fill="#D9D9D9"/>
</svg>
