<svg width="19" height="18" viewBox="0 0 19 18" fill="none" xmlns="http://www.w3.org/2000/svg">
<g clip-path="url(#clip0_69_69)">
<path fill-rule="evenodd" clip-rule="evenodd" d="M9.18333 0C4.21277 0 0.183334 4.02944 0.183334 9C0.183334 13.9706 4.21277 18 9.18333 18C14.1539 18 18.1833 13.9706 18.1833 9C18.1833 4.02944 14.1539 0 9.18333 0ZM12.9339 5.906C13.347 6.01935 13.6723 6.35333 13.7827 6.77746C13.9833 7.54614 13.9833 9.15 13.9833 9.15C13.9833 9.15 13.9833 10.7538 13.7827 11.5225C13.6723 11.9467 13.347 12.2807 12.9339 12.3941C12.1853 12.6 9.18333 12.6 9.18333 12.6C9.18333 12.6 6.18131 12.6 5.43268 12.3941C5.0196 12.2807 4.69429 11.9467 4.58389 11.5225C4.38333 10.7538 4.38333 9.15 4.38333 9.15C4.38333 9.15 4.38333 7.54614 4.58389 6.77746C4.69429 6.35333 5.0196 6.01935 5.43268 5.906C6.18131 5.7 9.18333 5.7 9.18333 5.7C9.18333 5.7 12.1853 5.7 12.9339 5.906Z" fill="white"/>
<path d="M8.28332 10.7998V7.7998L10.6833 9.29986L8.28332 10.7998Z" fill="white"/>
</g>
<defs>
<clipPath id="clip0_69_69">
<rect width="18" height="18" fill="white" transform="translate(0.183334)"/>
</clipPath>
</defs>
</svg>
