<svg width="19" height="18" viewBox="0 0 19 18" fill="none" xmlns="http://www.w3.org/2000/svg">
<g clip-path="url(#clip0_69_65)">
<path fill-rule="evenodd" clip-rule="evenodd" d="M9.18333 0C4.21277 0 0.183334 4.02944 0.183334 9C0.183334 13.9706 4.21277 18 9.18333 18C14.1539 18 18.1833 13.9706 18.1833 9C18.1833 4.02944 14.1539 0 9.18333 0ZM7.20456 4.229C7.71656 4.2057 7.88017 4.2 9.18378 4.2H9.18228C10.4863 4.2 10.6493 4.2057 11.1613 4.229C11.6723 4.2524 12.0213 4.3333 12.3273 4.452C12.6433 4.5745 12.9103 4.73851 13.1773 5.00551C13.4443 5.27231 13.6083 5.54011 13.7313 5.85582C13.8493 6.16102 13.9303 6.50982 13.9543 7.02083C13.9773 7.53283 13.9833 7.69644 13.9833 9.00005C13.9833 10.3037 13.9773 10.4669 13.9543 10.9789C13.9303 11.4897 13.8493 11.8386 13.7313 12.1439C13.6083 12.4595 13.4443 12.7273 13.1773 12.9941C12.9106 13.2611 12.6432 13.4255 12.3276 13.5481C12.0222 13.6668 11.673 13.7477 11.162 13.7711C10.65 13.7944 10.4869 13.8001 9.18318 13.8001C7.87967 13.8001 7.71616 13.7944 7.20416 13.7711C6.69325 13.7477 6.34435 13.6668 6.03895 13.5481C5.72344 13.4255 5.45564 13.2611 5.18894 12.9941C4.92204 12.7273 4.75803 12.4595 4.63533 12.1438C4.51673 11.8386 4.43583 11.4898 4.41233 10.9788C4.38913 10.4668 4.38333 10.3037 4.38333 9.00005C4.38333 7.69644 4.38933 7.53273 4.41223 7.02073C4.43523 6.50992 4.51623 6.16102 4.63523 5.85572C4.75823 5.54011 4.92224 5.27231 5.18924 5.00551C5.45604 4.73861 5.72384 4.5746 6.03955 4.452C6.34475 4.3333 6.69355 4.2524 7.20456 4.229Z" fill="white"/>
<path fill-rule="evenodd" clip-rule="evenodd" d="M8.7532 5.06516C8.83681 5.06503 8.92675 5.06507 9.02382 5.06512L9.1838 5.06516C10.4654 5.06516 10.6173 5.06976 11.1234 5.09277C11.5914 5.11417 11.8454 5.19237 12.0146 5.25807C12.2386 5.34507 12.3983 5.44907 12.5662 5.61707C12.7342 5.78507 12.8382 5.94507 12.9254 6.16908C12.9911 6.33808 13.0694 6.59208 13.0907 7.06009C13.1137 7.56609 13.1187 7.71809 13.1187 8.99911C13.1187 10.2801 13.1137 10.4321 13.0907 10.9381C13.0693 11.4061 12.9911 11.6601 12.9254 11.8291C12.8384 12.0531 12.7342 12.2126 12.5662 12.3805C12.3982 12.5485 12.2387 12.6525 12.0146 12.7395C11.8456 12.8055 11.5914 12.8835 11.1234 12.9049C10.6174 12.9279 10.4654 12.9329 9.1838 12.9329C7.90209 12.9329 7.75019 12.9279 7.24418 12.9049C6.77618 12.8833 6.52217 12.8051 6.35287 12.7394C6.12887 12.6524 5.96887 12.5484 5.80087 12.3804C5.63286 12.2124 5.52886 12.0528 5.44166 11.8287C5.37596 11.6597 5.29766 11.4057 5.27636 10.9377C5.25336 10.4317 5.24876 10.2797 5.24876 8.99791C5.24876 7.71609 5.25336 7.56489 5.27636 7.05889C5.29776 6.59088 5.37596 6.33688 5.44166 6.16768C5.52866 5.94367 5.63286 5.78367 5.80087 5.61567C5.96887 5.44767 6.12887 5.34367 6.35287 5.25647C6.52207 5.19047 6.77618 5.11247 7.24418 5.09097C7.68698 5.07096 7.85859 5.06496 8.7532 5.06396V5.06516ZM11.746 5.86217C11.428 5.86217 11.17 6.11988 11.17 6.43798C11.17 6.75598 11.428 7.01398 11.746 7.01398C12.064 7.01398 12.322 6.75598 12.322 6.43798C12.322 6.11998 12.064 5.86197 11.746 5.86197V5.86217ZM6.71877 9.00021C6.71877 7.63893 7.82243 6.53523 9.1837 6.53518C10.545 6.53518 11.6484 7.63889 11.6484 9.00021C11.6484 10.3615 10.5451 11.4647 9.1838 11.4647C7.82249 11.4647 6.71877 10.3615 6.71877 9.00021Z" fill="white"/>
<path d="M9.18374 7.3999C10.0674 7.3999 10.7837 8.11621 10.7837 8.99992C10.7837 9.88353 10.0674 10.5999 9.18374 10.5999C8.30003 10.5999 7.58372 9.88353 7.58372 8.99992C7.58372 8.11621 8.30003 7.3999 9.18374 7.3999Z" fill="white"/>
</g>
<defs>
<clipPath id="clip0_69_65">
<rect width="18" height="18" fill="white" transform="translate(0.183334)"/>
</clipPath>
</defs>
</svg>
