<svg width="19" height="18" viewBox="0 0 19 18" fill="none" xmlns="http://www.w3.org/2000/svg">
<g clip-path="url(#clip0_69_72)">
<path fill-rule="evenodd" clip-rule="evenodd" d="M0.183334 9C0.183334 13.9706 4.21277 18 9.18333 18C14.1539 18 18.1833 13.9706 18.1833 9C18.1833 4.02944 14.1539 0 9.18333 0C4.21277 0 0.183334 4.02944 0.183334 9ZM14.8316 8.65557C14.8304 11.6056 12.4306 14.006 9.47998 14.0072H9.47777C8.58209 14.0069 7.702 13.7822 6.92034 13.3558L4.08333 14.1L4.84256 11.3268C4.37423 10.5152 4.1278 9.59456 4.1282 8.65134C4.12937 5.70064 6.53014 3.3 9.47993 3.3C10.9115 3.30062 12.2552 3.85795 13.2656 4.86953C14.276 5.88106 14.8322 7.22563 14.8316 8.65557Z" fill="white"/>
<path fill-rule="evenodd" clip-rule="evenodd" d="M5.36821 12.8288L7.05173 12.3871L7.21415 12.4835C7.8971 12.8888 8.67995 13.1033 9.47813 13.1036H9.47993C11.9316 13.1036 13.927 11.1081 13.9279 8.65544C13.9284 7.46689 13.4662 6.34934 12.6264 5.50856C11.7866 4.66777 10.6697 4.20451 9.48168 4.2041C7.02812 4.2041 5.03269 6.19935 5.03172 8.65184C5.03137 9.49233 5.26654 10.3109 5.7118 11.0191L5.81757 11.1873L5.36821 12.8288ZM11.9929 9.80796C12.0862 9.85303 12.1491 9.88347 12.176 9.92836C12.2095 9.98412 12.2095 10.2519 12.0981 10.5643C11.9866 10.8766 11.4524 11.1617 11.1955 11.2001C10.9651 11.2345 10.6735 11.2489 10.3532 11.1471C10.159 11.0855 9.90998 11.0032 9.59094 10.8654C8.33734 10.3241 7.49016 9.10909 7.33005 8.87945C7.31883 8.86336 7.31099 8.85211 7.30661 8.84627L7.30553 8.84483C7.23476 8.75041 6.76059 8.11775 6.76059 7.46298C6.76059 6.84703 7.06316 6.52418 7.20243 6.37557C7.21197 6.36539 7.22075 6.35602 7.22861 6.34744C7.35117 6.21356 7.49605 6.1801 7.58519 6.1801C7.67433 6.1801 7.76357 6.18092 7.84148 6.18483C7.85109 6.18532 7.86109 6.18526 7.87143 6.1852C7.94936 6.18474 8.04651 6.18417 8.14234 6.41438C8.17921 6.50297 8.23316 6.63432 8.29007 6.77284C8.40513 7.05297 8.53226 7.36248 8.55463 7.40727C8.58807 7.4742 8.61035 7.55226 8.56577 7.64155C8.55908 7.65493 8.5529 7.66757 8.54698 7.67964C8.51351 7.74798 8.48888 7.79826 8.43206 7.8646C8.40972 7.89069 8.38662 7.91881 8.36353 7.94693C8.31753 8.00296 8.27153 8.05898 8.23147 8.09888C8.16453 8.16556 8.09484 8.23791 8.17285 8.37178C8.25085 8.50566 8.51922 8.94353 8.91674 9.29812C9.34406 9.67927 9.71546 9.84037 9.90372 9.92203C9.94048 9.93797 9.97026 9.95089 9.9921 9.96183C10.1258 10.0288 10.2038 10.0176 10.2818 9.92836C10.3598 9.83912 10.616 9.53789 10.7052 9.40404C10.7943 9.27021 10.8835 9.2925 11.006 9.33711C11.1286 9.38178 11.7861 9.70523 11.9198 9.77216C11.9459 9.78523 11.9703 9.79703 11.9929 9.80796Z" fill="white"/>
</g>
<defs>
<clipPath id="clip0_69_72">
<rect width="18" height="18" fill="white" transform="translate(0.183334)"/>
</clipPath>
</defs>
</svg>
