<svg width="24" height="24" viewBox="0 0 24 24" fill="none" xmlns="http://www.w3.org/2000/svg">
<path fill-rule="evenodd" clip-rule="evenodd" d="M0 12C0 18.6274 5.37258 24 12 24C18.6274 24 24 18.6274 24 12C24 5.37258 18.6274 0 12 0C5.37258 0 0 5.37258 0 12ZM19.5311 11.5408C19.5295 15.4741 16.3297 18.6747 12.3955 18.6763H12.3926C11.1984 18.6758 10.0249 18.3762 8.98267 17.8077L5.2 18.8L6.21231 15.1024C5.58787 14.0203 5.25929 12.7927 5.25982 11.5351C5.26139 7.60085 8.46241 4.4 12.3955 4.4C14.3043 4.40082 16.0959 5.14393 17.4431 6.49271C18.7903 7.84141 19.5318 9.63417 19.5311 11.5408Z" fill="#DF0000"/>
<path fill-rule="evenodd" clip-rule="evenodd" d="M6.91325 17.1048L9.15794 16.5159L9.37451 16.6445C10.2851 17.1848 11.3289 17.4708 12.3931 17.4712H12.3955C15.6644 17.4712 18.325 14.8106 18.3263 11.5403C18.3269 9.9556 17.7106 8.46554 16.5908 7.34449C15.4711 6.22344 13.982 5.60577 12.3979 5.60522C9.12647 5.60522 6.46589 8.26555 6.46459 11.5355C6.46413 12.6562 6.77769 13.7476 7.37137 14.6918L7.51239 14.9162L6.91325 17.1048ZM15.7462 13.077C15.8706 13.1371 15.9545 13.1777 15.9904 13.2376C16.0349 13.3119 16.0349 13.6689 15.8864 14.0854C15.7378 14.5019 15.0255 14.882 14.6829 14.9332C14.3758 14.9791 13.9871 14.9982 13.56 14.8625C13.301 14.7804 12.9689 14.6707 12.5436 14.4869C10.8721 13.7652 9.74252 12.1452 9.52903 11.839C9.51407 11.8176 9.50361 11.8026 9.49778 11.7948L9.49634 11.7929C9.40198 11.667 8.76976 10.8234 8.76976 9.95039C8.76976 9.12912 9.17318 8.69865 9.35887 8.50051C9.3716 8.48693 9.3833 8.47445 9.39378 8.463C9.5572 8.2845 9.75037 8.23988 9.86922 8.23988C9.98807 8.23988 10.1071 8.24097 10.2109 8.24619C10.2238 8.24684 10.2371 8.24676 10.2509 8.24668C10.3548 8.24607 10.4843 8.24531 10.6121 8.55225C10.6613 8.67037 10.7332 8.84548 10.809 9.03017C10.9625 9.40368 11.132 9.81638 11.1618 9.8761C11.2064 9.96535 11.2361 10.0694 11.1767 10.1885C11.1677 10.2063 11.1595 10.2232 11.1516 10.2393C11.107 10.3304 11.0741 10.3974 10.9984 10.4859C10.9686 10.5207 10.9378 10.5582 10.907 10.5957C10.8457 10.6704 10.7843 10.7451 10.7309 10.7983C10.6417 10.8872 10.5488 10.9836 10.6528 11.1621C10.7568 11.3406 11.1146 11.9245 11.6446 12.3972C12.2144 12.9054 12.7096 13.1202 12.9606 13.2291C13.0096 13.2504 13.0493 13.2676 13.0784 13.2822C13.2567 13.3715 13.3607 13.3565 13.4647 13.2376C13.5687 13.1186 13.9104 12.7169 14.0292 12.5385C14.1481 12.36 14.267 12.3898 14.4304 12.4492C14.5938 12.5088 15.4704 12.9401 15.6487 13.0293C15.6835 13.0467 15.716 13.0624 15.7462 13.077Z" fill="#DF0000"/>
</svg>
