<svg width="24" height="24" viewBox="0 0 24 24" fill="none" xmlns="http://www.w3.org/2000/svg">
<path fill-rule="evenodd" clip-rule="evenodd" d="M12 0C5.37258 0 0 5.37258 0 12C0 18.6274 5.37258 24 12 24C18.6274 24 24 18.6274 24 12C24 5.37258 18.6274 0 12 0ZM17.0008 7.87466C17.5516 8.0258 17.9853 8.47111 18.1325 9.03661C18.4 10.0615 18.4 12.2 18.4 12.2C18.4 12.2 18.4 14.3384 18.1325 15.3634C17.9853 15.9289 17.5516 16.3742 17.0008 16.5254C16.0027 16.8 12 16.8 12 16.8C12 16.8 7.99731 16.8 6.99913 16.5254C6.44836 16.3742 6.01462 15.9289 5.86742 15.3634C5.6 14.3384 5.6 12.2 5.6 12.2C5.6 12.2 5.6 10.0615 5.86742 9.03661C6.01462 8.47111 6.44836 8.0258 6.99913 7.87466C7.99731 7.6 12 7.6 12 7.6C12 7.6 16.0027 7.6 17.0008 7.87466Z" fill="#DF0000"/>
<path d="M10.8 14.4V10.4L14 12.4001L10.8 14.4Z" fill="#DF0000"/>
</svg>
