<svg width="81" height="73" viewBox="0 0 81 73" fill="none" xmlns="http://www.w3.org/2000/svg">
<path d="M20.6463 59.4588H20.6444C16.8955 59.4443 13.6416 58.5202 10.9057 56.6668L10.9046 56.6661C8.18481 54.8137 6.10417 52.1386 4.65238 48.6688L4.65169 48.6672C3.21386 45.1961 2.5113 41.0434 2.52557 36.2237C2.52564 31.4186 3.23539 27.2939 4.67387 23.8648L4.67456 23.8632C6.12714 20.4351 8.20908 17.8022 10.9303 15.9929C13.6662 14.169 16.9123 13.267 20.6463 13.267C24.3801 13.267 27.6196 14.169 30.3418 15.9934C33.0761 17.8165 35.165 20.4557 36.6177 23.8838L20.6463 59.4588ZM20.6463 59.4588C24.3957 59.4588 27.6437 58.542 30.3667 56.6874C33.0865 54.835 35.1601 52.1598 36.5976 48.6902L20.6463 59.4588ZM76.0132 52.6741C77.5287 50.6531 78.2789 48.3384 78.2646 45.7483C78.2788 42.9229 77.4017 40.5384 75.6165 38.6325C74.1342 37.0254 72.1046 35.958 69.5639 35.4029C71.4091 34.833 72.9693 33.873 74.2309 32.5173C75.8597 30.7824 76.6595 28.6181 76.6452 26.0613C76.6595 23.6632 76.0062 21.4908 74.6841 19.5589C73.3791 17.6169 71.5531 16.0849 69.2254 14.9577C66.8867 13.8251 64.1746 13.267 61.1026 13.267C58.0579 13.267 55.3076 13.8255 52.8612 14.9533C50.4329 16.0652 48.4875 17.6161 47.0403 19.6097C45.5842 21.6156 44.8373 23.9325 44.793 26.5427L44.7844 27.0511H45.293H54.1353H54.6164L54.6349 26.5704C54.6739 25.5571 54.9766 24.6918 55.5351 23.9556C56.1027 23.2073 56.861 22.6267 57.8251 22.2173L57.8251 22.2174L57.8304 22.215C58.7977 21.791 59.8719 21.5753 61.06 21.5753C62.2323 21.5753 63.2315 21.7974 64.0723 22.2243L64.075 22.2256C64.9345 22.6554 65.586 23.2466 66.0451 23.9991L66.045 23.9991L66.0504 24.0075C66.5188 24.7417 66.7603 25.6049 66.7603 26.6151C66.7603 27.6736 66.4877 28.5806 65.9546 29.3555C65.4168 30.1232 64.6548 30.7362 63.647 31.187L63.6448 31.1881C62.6554 31.6366 61.4993 31.8679 60.1651 31.8679H56.0955H55.5955V32.3679V39.1435V39.6435H56.0955H60.1651C61.7627 39.6435 63.1129 39.8915 64.2295 40.3701L64.2315 40.3709C65.3685 40.8525 66.211 41.509 66.7874 42.3288L66.7873 42.3288L66.7926 42.336C67.3801 43.1408 67.6765 44.0661 67.6765 45.1307C67.6765 46.1873 67.3979 47.1019 66.8494 47.8926C66.295 48.6921 65.5231 49.3262 64.5156 49.7902C63.5126 50.2521 62.3432 50.4901 60.9961 50.4901C59.7013 50.4901 58.5524 50.2789 57.5415 49.8666C56.5302 49.4541 55.7363 48.8836 55.1426 48.1622C54.5716 47.4374 54.2599 46.6009 54.2085 45.6367L54.1832 45.1634H53.7092H44.4194H43.9109L43.9195 45.6717C43.9637 48.3114 44.7254 50.657 46.2101 52.6911L46.2126 52.6944C47.7044 54.7032 49.7292 56.2737 52.2688 57.4122L52.272 57.4136C54.8312 58.5397 57.7354 59.0966 60.9748 59.0966C64.2984 59.0966 67.2664 58.5329 69.8686 57.3926C72.4644 56.2552 74.5195 54.685 76.0132 52.6741ZM76.0132 52.6741C76.013 52.6744 76.0128 52.6747 76.0126 52.675L75.6126 52.375M76.0132 52.6741C76.0135 52.6738 76.0137 52.6735 76.014 52.6731L75.6126 52.375M75.6126 52.375C77.0614 50.4432 77.7788 48.2344 77.7646 45.7486L52.4734 56.956C54.9592 58.0497 57.793 58.5966 60.9748 58.5966C64.2418 58.5966 67.1396 58.0426 69.668 56.9347C72.1964 55.8267 74.1779 54.3068 75.6126 52.375ZM28.3494 36.2244L28.3494 36.2258C28.3635 41.221 27.6266 44.8843 26.2035 47.2833C24.784 49.6761 22.937 50.8097 20.6463 50.8097C19.1079 50.8097 17.7784 50.3014 16.6347 49.2766C15.4878 48.2346 14.5672 46.65 13.902 44.475C13.2531 42.2926 12.9219 39.5469 12.9219 36.2252C12.936 31.302 13.6864 27.6882 15.1091 25.3169C16.528 22.9521 18.3681 21.831 20.6463 21.831C22.1851 21.831 23.5069 22.3394 24.6357 23.3633L24.6378 23.3652C25.7841 24.3929 26.6973 25.9559 27.3482 28.1025L27.3491 28.1053C28.0112 30.2432 28.3494 32.945 28.3494 36.2244ZM38.767 36.2246C38.7813 31.4193 38.0716 27.3006 36.618 23.8845L38.767 36.2246Z" stroke="white"/>
</svg>
