<svg width="18" height="20" viewBox="0 0 18 20" fill="none" xmlns="http://www.w3.org/2000/svg">
<path d="M8.99368 3.98535C6.68599 3.98535 4.81201 5.86342 4.81201 8.16702C4.81201 10.4706 6.68599 12.3528 8.99368 12.3528C11.3014 12.3528 13.1754 10.4747 13.1754 8.17111C13.1754 5.86751 11.3014 3.98535 8.99368 3.98535ZM8.99368 11.3503C7.23836 11.3503 5.81447 9.92234 5.81447 8.17111C5.81447 6.41988 7.24245 4.9919 8.99368 4.9919C10.7449 4.9919 12.1729 6.41988 12.1729 8.17111C12.1729 9.92234 10.749 11.3503 8.99368 11.3503Z" fill="white"/>
<path d="M8.99395 0C8.89984 0 8.80164 0 8.70753 0.00409165C4.67316 0.143208 1.33846 3.27741 0.953848 7.29133C0.880198 8.06874 0.917023 8.85025 1.06023 9.59493C1.06023 9.59493 1.07251 9.68904 1.11751 9.86498C1.24026 10.4173 1.42439 10.9534 1.65761 11.4525C2.48822 13.4206 4.309 16.4525 8.26154 19.734C8.47021 19.9059 8.73208 20 9.00213 20C9.27218 20 9.53404 19.9059 9.74272 19.734C13.6912 16.4566 15.512 13.4206 16.3385 11.4689C16.5758 10.9574 16.7599 10.4173 16.8827 9.86907C16.9072 9.77087 16.9236 9.68903 16.9358 9.61129C17.034 9.10802 17.0831 8.59247 17.0831 8.07692C17.075 3.6252 13.4498 0 8.99395 0ZM15.9416 9.43944C15.9416 9.44763 15.9293 9.51719 15.9007 9.64403C15.7902 10.1268 15.6306 10.5974 15.4178 11.0638C14.6282 12.9296 12.8933 15.8142 9.10033 18.9607C9.0635 18.9894 9.02668 18.9975 8.99804 18.9975C8.97349 18.9975 8.93257 18.9894 8.89575 18.9607C5.10278 15.8101 3.36383 12.9255 2.57005 11.0475C2.36138 10.5974 2.2018 10.1268 2.09133 9.63994C2.06678 9.53355 2.0545 9.46809 2.05041 9.44763C2.05041 9.43944 2.04632 9.43126 2.04632 9.42308C1.91948 8.75614 1.88674 8.06874 1.95221 7.38953C2.29182 3.8748 5.20917 1.1293 8.74436 1.00655C12.7583 0.867431 16.0725 4.09165 16.0725 8.08102C16.0725 8.5311 16.0275 8.98118 15.9416 9.43944Z" fill="white"/>
</svg>
